<svg width="114" height="17" viewBox="0 0 114 17" fill="none" xmlns="http://www.w3.org/2000/svg">
<path d="M5.138 2.62C5.59533 2.62 6.01067 2.68067 6.384 2.802C6.75733 2.92333 7.07467 3.096 7.336 3.32C7.60667 3.544 7.812 3.81467 7.952 4.132C8.10133 4.44 8.176 4.79 8.176 5.182C8.176 5.686 8.05467 6.11067 7.812 6.456C7.57867 6.792 7.24267 7.04867 6.804 7.226C7.364 7.366 7.80267 7.618 8.12 7.982C8.43733 8.346 8.596 8.822 8.596 9.41C8.596 9.802 8.52133 10.1613 8.372 10.488C8.232 10.8053 8.02667 11.076 7.756 11.3C7.49467 11.524 7.17733 11.6967 6.804 11.818C6.43067 11.9393 6.01533 12 5.558 12H1.4V2.62H5.138ZM4.942 6.806C5.54867 6.806 6.02933 6.666 6.384 6.386C6.73867 6.09667 6.916 5.714 6.916 5.238C6.916 4.762 6.73867 4.39333 6.384 4.132C6.02933 3.87067 5.54867 3.74 4.942 3.74H2.59V6.806H4.942ZM5.362 10.88C5.96867 10.88 6.44933 10.7447 6.804 10.474C7.15867 10.2033 7.336 9.82067 7.336 9.326C7.336 8.84067 7.15867 8.46267 6.804 8.192C6.44933 7.92133 5.96867 7.786 5.362 7.786H2.59V10.88H5.362ZM9.85688 8.416C9.85688 7.89333 9.95488 7.408 10.1509 6.96C10.3469 6.50267 10.6129 6.106 10.9489 5.77C11.2849 5.434 11.6769 5.17267 12.1249 4.986C12.5822 4.79 13.0675 4.692 13.5809 4.692C14.0942 4.692 14.5749 4.79 15.0229 4.986C15.4802 5.17267 15.8769 5.434 16.2129 5.77C16.5489 6.106 16.8149 6.50267 17.0109 6.96C17.2069 7.408 17.3049 7.89333 17.3049 8.416C17.3049 8.92933 17.2069 9.41 17.0109 9.858C16.8149 10.306 16.5489 10.698 16.2129 11.034C15.8769 11.37 15.4802 11.636 15.0229 11.832C14.5749 12.028 14.0942 12.126 13.5809 12.126C13.0675 12.126 12.5822 12.028 12.1249 11.832C11.6769 11.636 11.2849 11.37 10.9489 11.034C10.6129 10.698 10.3469 10.306 10.1509 9.858C9.95488 9.41 9.85688 8.92933 9.85688 8.416ZM11.0609 8.416C11.0609 8.752 11.1169 9.07867 11.2289 9.396C11.3502 9.704 11.5182 9.97933 11.7329 10.222C11.9569 10.4647 12.2229 10.6607 12.5309 10.81C12.8482 10.95 13.1982 11.02 13.5809 11.02C13.9635 11.02 14.3089 10.95 14.6169 10.81C14.9342 10.6607 15.2002 10.4647 15.4149 10.222C15.6295 9.97933 15.7929 9.704 15.9049 9.396C16.0262 9.07867 16.0869 8.752 16.0869 8.416C16.0869 8.08 16.0262 7.75333 15.9049 7.436C15.7929 7.11867 15.6295 6.83867 15.4149 6.596C15.2002 6.35333 14.9342 6.162 14.6169 6.022C14.3089 5.87267 13.9635 5.798 13.5809 5.798C13.1982 5.798 12.8482 5.87267 12.5309 6.022C12.2229 6.162 11.9569 6.35333 11.7329 6.596C11.5182 6.83867 11.3502 7.11867 11.2289 7.436C11.1169 7.75333 11.0609 8.08 11.0609 8.416ZM18.4291 8.416C18.4291 7.89333 18.5271 7.408 18.7231 6.96C18.9191 6.50267 19.1851 6.106 19.5211 5.77C19.8571 5.434 20.2491 5.17267 20.6971 4.986C21.1545 4.79 21.6398 4.692 22.1531 4.692C22.6665 4.692 23.1471 4.79 23.5951 4.986C24.0525 5.17267 24.4491 5.434 24.7851 5.77C25.1211 6.106 25.3871 6.50267 25.5831 6.96C25.7791 7.408 25.8771 7.89333 25.8771 8.416C25.8771 8.92933 25.7791 9.41 25.5831 9.858C25.3871 10.306 25.1211 10.698 24.7851 11.034C24.4491 11.37 24.0525 11.636 23.5951 11.832C23.1471 12.028 22.6665 12.126 22.1531 12.126C21.6398 12.126 21.1545 12.028 20.6971 11.832C20.2491 11.636 19.8571 11.37 19.5211 11.034C19.1851 10.698 18.9191 10.306 18.7231 9.858C18.5271 9.41 18.4291 8.92933 18.4291 8.416ZM19.6331 8.416C19.6331 8.752 19.6891 9.07867 19.8011 9.396C19.9225 9.704 20.0905 9.97933 20.3051 10.222C20.5291 10.4647 20.7951 10.6607 21.1031 10.81C21.4205 10.95 21.7705 11.02 22.1531 11.02C22.5358 11.02 22.8811 10.95 23.1891 10.81C23.5065 10.6607 23.7725 10.4647 23.9871 10.222C24.2018 9.97933 24.3651 9.704 24.4771 9.396C24.5985 9.07867 24.6591 8.752 24.6591 8.416C24.6591 8.08 24.5985 7.75333 24.4771 7.436C24.3651 7.11867 24.2018 6.83867 23.9871 6.596C23.7725 6.35333 23.5065 6.162 23.1891 6.022C22.8811 5.87267 22.5358 5.798 22.1531 5.798C21.7705 5.798 21.4205 5.87267 21.1031 6.022C20.7951 6.162 20.5291 6.35333 20.3051 6.596C20.0905 6.83867 19.9225 7.11867 19.8011 7.436C19.6891 7.75333 19.6331 8.08 19.6331 8.416ZM27.5614 1.92H28.6814V7.758H29.7034L31.8594 4.832H33.3434L30.7814 8.262L33.6654 12H32.1254L29.7454 8.808H28.6814V12H27.5614V1.92ZM36.7532 12L33.9112 4.832H35.1572L37.3832 10.684L39.6372 4.832H40.8832L38.0412 12H36.7532ZM42.6973 8.738C42.7346 9.05533 42.8186 9.35867 42.9493 9.648C43.0893 9.928 43.2666 10.1707 43.4813 10.376C43.6959 10.5813 43.9526 10.7447 44.2513 10.866C44.5499 10.9873 44.8766 11.048 45.2313 11.048C45.7166 11.048 46.1273 10.95 46.4633 10.754C46.7993 10.5487 47.0513 10.2967 47.2193 9.998H48.5773C48.3626 10.6327 47.9613 11.146 47.3733 11.538C46.7946 11.93 46.0806 12.126 45.2313 12.126C44.7179 12.126 44.2326 12.028 43.7753 11.832C43.3273 11.636 42.9353 11.37 42.5993 11.034C42.2633 10.698 41.9973 10.306 41.8013 9.858C41.6053 9.41 41.5073 8.92933 41.5073 8.416C41.5073 7.89333 41.6006 7.408 41.7873 6.96C41.9739 6.50267 42.2306 6.106 42.5573 5.77C42.8839 5.434 43.2666 5.17267 43.7053 4.986C44.1533 4.79 44.6339 4.692 45.1473 4.692C45.6513 4.692 46.1179 4.76667 46.5473 4.916C46.9766 5.06533 47.3499 5.27533 47.6673 5.546C47.9939 5.81667 48.2553 6.14333 48.4513 6.526C48.6566 6.89933 48.7779 7.31933 48.8153 7.786C48.8339 7.93533 48.8433 8.07067 48.8433 8.192C48.8433 8.22 48.8386 8.28067 48.8293 8.374C48.8293 8.458 48.8246 8.57933 48.8153 8.738H42.6973ZM47.5413 7.786C47.5133 7.478 47.4339 7.20267 47.3033 6.96C47.1819 6.708 47.0139 6.49333 46.7993 6.316C46.5939 6.13867 46.3513 6.00333 46.0713 5.91C45.7913 5.81667 45.4833 5.77 45.1473 5.77C44.8206 5.77 44.5219 5.82133 44.2513 5.924C43.9806 6.02667 43.7426 6.17133 43.5373 6.358C43.3319 6.53533 43.1593 6.74533 43.0193 6.988C42.8886 7.23067 42.7953 7.49667 42.7393 7.786H47.5413ZM50.4891 4.832H51.6091V6.414C51.8985 5.83533 52.2905 5.406 52.7851 5.126C53.2798 4.83667 53.8165 4.692 54.3951 4.692V5.91C54.0871 5.91 53.7651 5.97067 53.4291 6.092C53.1025 6.204 52.8038 6.372 52.5331 6.596C52.2625 6.82 52.0385 7.1 51.8611 7.436C51.6931 7.76267 51.6091 8.14533 51.6091 8.584V12H50.4891V4.832ZM55.6645 6.792C55.6645 6.148 55.9025 5.63933 56.3785 5.266C56.8639 4.88333 57.5219 4.692 58.3525 4.692C59.1739 4.692 59.8272 4.87867 60.3125 5.252C60.7979 5.62533 61.0545 6.13867 61.0825 6.792H59.8925C59.8739 6.47467 59.7292 6.22267 59.4585 6.036C59.1972 5.84 58.8519 5.742 58.4225 5.742C57.3772 5.742 56.8545 6.078 56.8545 6.75C56.8545 6.98333 56.9152 7.17 57.0365 7.31C57.1672 7.45 57.3352 7.56667 57.5405 7.66C57.7459 7.744 57.9792 7.814 58.2405 7.87C58.5112 7.926 58.7819 7.98667 59.0525 8.052C59.3232 8.108 59.5892 8.178 59.8505 8.262C60.1212 8.346 60.3592 8.46267 60.5645 8.612C60.7699 8.752 60.9332 8.934 61.0545 9.158C61.1852 9.382 61.2505 9.662 61.2505 9.998C61.2505 10.6607 61.0032 11.1787 60.5085 11.552C60.0232 11.9253 59.3419 12.112 58.4645 12.112C58.0165 12.112 57.6105 12.0607 57.2465 11.958C56.8825 11.8553 56.5699 11.7153 56.3085 11.538C56.0565 11.3513 55.8605 11.1273 55.7205 10.866C55.5805 10.6047 55.5105 10.3153 55.5105 9.998H56.7145C56.8452 10.7073 57.4472 11.062 58.5205 11.062C59.5472 11.062 60.0605 10.7447 60.0605 10.11C60.0605 9.802 59.9485 9.578 59.7245 9.438C59.5099 9.28867 59.2392 9.172 58.9125 9.088C58.5952 9.004 58.2452 8.92933 57.8625 8.864C57.4799 8.79867 57.1252 8.696 56.7985 8.556C56.4812 8.40667 56.2105 8.19667 55.9865 7.926C55.7719 7.65533 55.6645 7.27733 55.6645 6.792ZM63.6973 8.738C63.7346 9.05533 63.8186 9.35867 63.9493 9.648C64.0893 9.928 64.2666 10.1707 64.4813 10.376C64.6959 10.5813 64.9526 10.7447 65.2513 10.866C65.5499 10.9873 65.8766 11.048 66.2313 11.048C66.7166 11.048 67.1273 10.95 67.4633 10.754C67.7993 10.5487 68.0513 10.2967 68.2193 9.998H69.5773C69.3626 10.6327 68.9613 11.146 68.3733 11.538C67.7946 11.93 67.0806 12.126 66.2313 12.126C65.7179 12.126 65.2326 12.028 64.7753 11.832C64.3273 11.636 63.9353 11.37 63.5993 11.034C63.2633 10.698 62.9973 10.306 62.8013 9.858C62.6053 9.41 62.5073 8.92933 62.5073 8.416C62.5073 7.89333 62.6006 7.408 62.7873 6.96C62.9739 6.50267 63.2306 6.106 63.5573 5.77C63.8839 5.434 64.2666 5.17267 64.7053 4.986C65.1533 4.79 65.6339 4.692 66.1473 4.692C66.6513 4.692 67.1179 4.76667 67.5473 4.916C67.9766 5.06533 68.3499 5.27533 68.6673 5.546C68.9939 5.81667 69.2553 6.14333 69.4513 6.526C69.6566 6.89933 69.7779 7.31933 69.8153 7.786C69.8339 7.93533 69.8433 8.07067 69.8433 8.192C69.8433 8.22 69.8386 8.28067 69.8293 8.374C69.8293 8.458 69.8246 8.57933 69.8153 8.738H63.6973ZM68.5413 7.786C68.5133 7.478 68.4339 7.20267 68.3033 6.96C68.1819 6.708 68.0139 6.49333 67.7993 6.316C67.5939 6.13867 67.3513 6.00333 67.0713 5.91C66.7913 5.81667 66.4833 5.77 66.1473 5.77C65.8206 5.77 65.5219 5.82133 65.2513 5.924C64.9806 6.02667 64.7426 6.17133 64.5373 6.358C64.3319 6.53533 64.1593 6.74533 64.0193 6.988C63.8886 7.23067 63.7953 7.49667 63.7393 7.786H68.5413ZM79.0071 2.62C79.4645 2.62 79.8798 2.68067 80.2531 2.802C80.6265 2.92333 80.9438 3.096 81.2051 3.32C81.4758 3.544 81.6811 3.81467 81.8211 4.132C81.9705 4.44 82.0451 4.79 82.0451 5.182C82.0451 5.686 81.9238 6.11067 81.6811 6.456C81.4478 6.792 81.1118 7.04867 80.6731 7.226C81.2331 7.366 81.6718 7.618 81.9891 7.982C82.3065 8.346 82.4651 8.822 82.4651 9.41C82.4651 9.802 82.3905 10.1613 82.2411 10.488C82.1011 10.8053 81.8958 11.076 81.6251 11.3C81.3638 11.524 81.0465 11.6967 80.6731 11.818C80.2998 11.9393 79.8845 12 79.4271 12H75.2691V2.62H79.0071ZM78.8111 6.806C79.4178 6.806 79.8985 6.666 80.2531 6.386C80.6078 6.09667 80.7851 5.714 80.7851 5.238C80.7851 4.762 80.6078 4.39333 80.2531 4.132C79.8985 3.87067 79.4178 3.74 78.8111 3.74H76.4591V6.806H78.8111ZM79.2311 10.88C79.8378 10.88 80.3185 10.7447 80.6731 10.474C81.0278 10.2033 81.2051 9.82067 81.2051 9.326C81.2051 8.84067 81.0278 8.46267 80.6731 8.192C80.3185 7.92133 79.8378 7.786 79.2311 7.786H76.4591V10.88H79.2311ZM84.02 2.606C84.02 2.37267 84.0993 2.17667 84.258 2.018C84.4167 1.85933 84.6127 1.78 84.846 1.78C85.0793 1.78 85.2753 1.85933 85.434 2.018C85.5927 2.17667 85.672 2.37267 85.672 2.606C85.672 2.83933 85.5927 3.03533 85.434 3.194C85.2753 3.35267 85.0793 3.432 84.846 3.432C84.6127 3.432 84.4167 3.35267 84.258 3.194C84.0993 3.03533 84.02 2.83933 84.02 2.606ZM84.286 4.832H85.406V12H84.286V4.832ZM94.9713 8.43C94.9713 8.934 94.878 9.41 94.6913 9.858C94.514 10.306 94.2666 10.698 93.9493 11.034C93.632 11.37 93.254 11.636 92.8153 11.832C92.3766 12.028 91.9006 12.126 91.3873 12.126C90.7433 12.126 90.2113 12.014 89.7913 11.79C89.3713 11.566 89.0306 11.258 88.7693 10.866V12H87.6493V1.92H88.7693V5.966C89.0306 5.574 89.3713 5.266 89.7913 5.042C90.2113 4.80867 90.7433 4.692 91.3873 4.692C91.9006 4.692 92.3766 4.79 92.8153 4.986C93.254 5.182 93.632 5.448 93.9493 5.784C94.2666 6.12 94.514 6.51667 94.6913 6.974C94.878 7.422 94.9713 7.90733 94.9713 8.43ZM88.7693 7.87V9.004C88.816 9.284 88.9093 9.54533 89.0493 9.788C89.1893 10.0307 89.3666 10.2453 89.5813 10.432C89.796 10.6093 90.0433 10.754 90.3233 10.866C90.6033 10.9687 90.9113 11.02 91.2473 11.02C91.6393 11.02 91.994 10.95 92.3113 10.81C92.6286 10.6607 92.8946 10.4693 93.1093 10.236C93.324 9.99333 93.4873 9.718 93.5993 9.41C93.7206 9.09267 93.7813 8.766 93.7813 8.43C93.7813 8.08467 93.7206 7.75333 93.5993 7.436C93.4873 7.11867 93.324 6.83867 93.1093 6.596C92.8946 6.35333 92.6286 6.162 92.3113 6.022C91.994 5.87267 91.6393 5.798 91.2473 5.798C90.9113 5.798 90.5986 5.854 90.3093 5.966C90.0293 6.06867 89.782 6.21333 89.5673 6.4C89.362 6.58667 89.1893 6.806 89.0493 7.058C88.9093 7.31 88.816 7.58067 88.7693 7.87ZM96.6454 1.92H97.7654V12H96.6454V1.92ZM100.639 8.738C100.676 9.05533 100.76 9.35867 100.891 9.648C101.031 9.928 101.208 10.1707 101.423 10.376C101.637 10.5813 101.894 10.7447 102.193 10.866C102.491 10.9873 102.818 11.048 103.173 11.048C103.658 11.048 104.069 10.95 104.405 10.754C104.741 10.5487 104.993 10.2967 105.161 9.998H106.519C106.304 10.6327 105.903 11.146 105.315 11.538C104.736 11.93 104.022 12.126 103.173 12.126C102.659 12.126 102.174 12.028 101.717 11.832C101.269 11.636 100.877 11.37 100.541 11.034C100.205 10.698 99.9387 10.306 99.7427 9.858C99.5467 9.41 99.4487 8.92933 99.4487 8.416C99.4487 7.89333 99.542 7.408 99.7287 6.96C99.9153 6.50267 100.172 6.106 100.499 5.77C100.825 5.434 101.208 5.17267 101.647 4.986C102.095 4.79 102.575 4.692 103.089 4.692C103.593 4.692 104.059 4.76667 104.489 4.916C104.918 5.06533 105.291 5.27533 105.609 5.546C105.935 5.81667 106.197 6.14333 106.393 6.526C106.598 6.89933 106.719 7.31933 106.757 7.786C106.775 7.93533 106.785 8.07067 106.785 8.192C106.785 8.22 106.78 8.28067 106.771 8.374C106.771 8.458 106.766 8.57933 106.757 8.738H100.639ZM105.483 7.786C105.455 7.478 105.375 7.20267 105.245 6.96C105.123 6.708 104.955 6.49333 104.741 6.316C104.535 6.13867 104.293 6.00333 104.013 5.91C103.733 5.81667 103.425 5.77 103.089 5.77C102.762 5.77 102.463 5.82133 102.193 5.924C101.922 6.02667 101.684 6.17133 101.479 6.358C101.273 6.53533 101.101 6.74533 100.961 6.988C100.83 7.23067 100.737 7.49667 100.681 7.786H105.483Z" fill="#212A3E"/>
<circle cx="112" cy="10" r="2" fill="#009FBD"/>
</svg>
